<mxfile host="app.diagrams.net" agent="Mozilla/5.0 (Windows NT 10.0; Win64; x64) AppleWebKit/537.36 (KHTML, like Gecko) Chrome/139.0.0.0 Safari/537.36" version="28.1.2">
  <diagram name="Page-1" id="XmcfdFTlg7d6BKQ1Et1z">
    <mxGraphModel dx="1042" dy="562" grid="1" gridSize="10" guides="1" tooltips="1" connect="1" arrows="1" fold="1" page="1" pageScale="1" pageWidth="827" pageHeight="1169" math="0" shadow="0">
      <root>
        <mxCell id="0" />
        <mxCell id="1" parent="0" />
        <mxCell id="U2SUKcloo29ZWZg7QdRj-1" value="&lt;font style=&quot;font-size: 14px;&quot;&gt;Start&lt;/font&gt;" style="text;strokeColor=none;align=center;fillColor=none;html=1;verticalAlign=middle;whiteSpace=wrap;rounded=0;" parent="1" vertex="1">
          <mxGeometry x="442.5" y="20" width="66" height="20" as="geometry" />
        </mxCell>
        <mxCell id="U2SUKcloo29ZWZg7QdRj-2" value="" style="strokeWidth=2;html=1;shape=mxgraph.flowchart.start_2;whiteSpace=wrap;fillColor=light-dark(#330000, #ffffff);fontSize=12;" parent="1" vertex="1">
          <mxGeometry x="460.5" y="50" width="30" height="30" as="geometry" />
        </mxCell>
        <mxCell id="U2SUKcloo29ZWZg7QdRj-3" value="" style="endArrow=classic;html=1;rounded=0;exitX=0.5;exitY=1;exitDx=0;exitDy=0;exitPerimeter=0;" parent="1" edge="1">
          <mxGeometry width="50" height="50" relative="1" as="geometry">
            <mxPoint x="475" y="80" as="sourcePoint" />
            <mxPoint x="475" y="110" as="targetPoint" />
          </mxGeometry>
        </mxCell>
        <mxCell id="U2SUKcloo29ZWZg7QdRj-4" value="Login" style="html=1;dashed=0;whiteSpace=wrap;shape=mxgraph.dfd.start" parent="1" vertex="1">
          <mxGeometry x="428.5" y="110" width="94" height="30" as="geometry" />
        </mxCell>
        <mxCell id="U2SUKcloo29ZWZg7QdRj-5" value="" style="endArrow=classic;html=1;rounded=0;exitX=0.5;exitY=1;exitDx=0;exitDy=0;exitPerimeter=0;" parent="1" edge="1">
          <mxGeometry width="50" height="50" relative="1" as="geometry">
            <mxPoint x="475" y="140" as="sourcePoint" />
            <mxPoint x="475" y="170" as="targetPoint" />
          </mxGeometry>
        </mxCell>
        <mxCell id="U2SUKcloo29ZWZg7QdRj-7" value="&amp;nbsp; &amp;nbsp; Check Username&amp;amp;&amp;nbsp; &amp;nbsp;&lt;div&gt;Password&lt;/div&gt;" style="rhombus;whiteSpace=wrap;html=1;" parent="1" vertex="1">
          <mxGeometry x="404" y="170" width="140" height="80" as="geometry" />
        </mxCell>
        <mxCell id="U2SUKcloo29ZWZg7QdRj-8" style="edgeStyle=orthogonalEdgeStyle;rounded=0;orthogonalLoop=1;jettySize=auto;html=1;exitX=1;exitY=0.5;exitDx=0;exitDy=0;entryX=1;entryY=0.5;entryDx=0;entryDy=0;entryPerimeter=0;" parent="1" source="U2SUKcloo29ZWZg7QdRj-7" target="U2SUKcloo29ZWZg7QdRj-4" edge="1">
          <mxGeometry relative="1" as="geometry">
            <Array as="points">
              <mxPoint x="600" y="210" />
              <mxPoint x="600" y="125" />
            </Array>
          </mxGeometry>
        </mxCell>
        <mxCell id="U2SUKcloo29ZWZg7QdRj-9" value="Invalid" style="text;html=1;align=center;verticalAlign=middle;resizable=0;points=[];autosize=1;strokeColor=none;fillColor=none;" parent="1" vertex="1">
          <mxGeometry x="540" y="180" width="60" height="30" as="geometry" />
        </mxCell>
        <mxCell id="U2SUKcloo29ZWZg7QdRj-10" value="" style="endArrow=classic;html=1;rounded=0;exitX=0.5;exitY=1;exitDx=0;exitDy=0;exitPerimeter=0;" parent="1" edge="1">
          <mxGeometry width="50" height="50" relative="1" as="geometry">
            <mxPoint x="473.5" y="250" as="sourcePoint" />
            <mxPoint x="473.5" y="291" as="targetPoint" />
          </mxGeometry>
        </mxCell>
        <mxCell id="U2SUKcloo29ZWZg7QdRj-11" value="Valid" style="text;html=1;align=center;verticalAlign=middle;resizable=0;points=[];autosize=1;strokeColor=none;fillColor=none;" parent="1" vertex="1">
          <mxGeometry x="472.5" y="250" width="50" height="30" as="geometry" />
        </mxCell>
        <mxCell id="U2SUKcloo29ZWZg7QdRj-15" value="" style="endArrow=classic;html=1;rounded=0;exitX=0.5;exitY=1;exitDx=0;exitDy=0;exitPerimeter=0;" parent="1" edge="1">
          <mxGeometry width="50" height="50" relative="1" as="geometry">
            <mxPoint x="287" y="295" as="sourcePoint" />
            <mxPoint x="287" y="325" as="targetPoint" />
          </mxGeometry>
        </mxCell>
        <mxCell id="U2SUKcloo29ZWZg7QdRj-16" value="Manage Brand" style="html=1;dashed=0;whiteSpace=wrap;shape=mxgraph.dfd.start" parent="1" vertex="1">
          <mxGeometry x="348" y="325" width="113" height="30" as="geometry" />
        </mxCell>
        <mxCell id="U2SUKcloo29ZWZg7QdRj-17" value="" style="endArrow=classic;html=1;rounded=0;exitX=0.5;exitY=1;exitDx=0;exitDy=0;exitPerimeter=0;" parent="1" edge="1">
          <mxGeometry width="50" height="50" relative="1" as="geometry">
            <mxPoint x="404" y="295" as="sourcePoint" />
            <mxPoint x="404" y="325" as="targetPoint" />
          </mxGeometry>
        </mxCell>
        <mxCell id="U2SUKcloo29ZWZg7QdRj-18" value="Manage Product" style="html=1;dashed=0;whiteSpace=wrap;shape=mxgraph.dfd.start" parent="1" vertex="1">
          <mxGeometry x="470" y="325" width="113" height="30" as="geometry" />
        </mxCell>
        <mxCell id="U2SUKcloo29ZWZg7QdRj-19" value="" style="endArrow=classic;html=1;rounded=0;exitX=0.5;exitY=1;exitDx=0;exitDy=0;exitPerimeter=0;" parent="1" edge="1">
          <mxGeometry width="50" height="50" relative="1" as="geometry">
            <mxPoint x="526" y="295" as="sourcePoint" />
            <mxPoint x="526" y="325" as="targetPoint" />
          </mxGeometry>
        </mxCell>
        <mxCell id="U2SUKcloo29ZWZg7QdRj-21" value="View Review" style="html=1;dashed=0;whiteSpace=wrap;shape=mxgraph.dfd.start" parent="1" vertex="1">
          <mxGeometry x="231" y="325" width="113" height="30" as="geometry" />
        </mxCell>
        <mxCell id="U2SUKcloo29ZWZg7QdRj-24" value="" style="endArrow=classic;html=1;rounded=0;exitX=0.5;exitY=1;exitDx=0;exitDy=0;exitPerimeter=0;" parent="1" edge="1">
          <mxGeometry width="50" height="50" relative="1" as="geometry">
            <mxPoint x="643" y="295" as="sourcePoint" />
            <mxPoint x="643" y="325" as="targetPoint" />
          </mxGeometry>
        </mxCell>
        <mxCell id="U2SUKcloo29ZWZg7QdRj-26" value="" style="endArrow=classic;html=1;rounded=0;exitX=0.5;exitY=1;exitDx=0;exitDy=0;exitPerimeter=0;" parent="1" edge="1">
          <mxGeometry width="50" height="50" relative="1" as="geometry">
            <mxPoint x="600" y="355" as="sourcePoint" />
            <mxPoint x="600" y="385" as="targetPoint" />
          </mxGeometry>
        </mxCell>
        <mxCell id="U2SUKcloo29ZWZg7QdRj-27" value="Manage Order" style="html=1;dashed=0;whiteSpace=wrap;shape=mxgraph.dfd.start" parent="1" vertex="1">
          <mxGeometry x="587" y="325" width="143" height="30" as="geometry" />
        </mxCell>
        <mxCell id="U2SUKcloo29ZWZg7QdRj-29" value="" style="endArrow=classic;html=1;rounded=0;exitX=0.5;exitY=1;exitDx=0;exitDy=0;exitPerimeter=0;" parent="1" edge="1">
          <mxGeometry width="50" height="50" relative="1" as="geometry">
            <mxPoint x="710" y="355" as="sourcePoint" />
            <mxPoint x="710" y="385" as="targetPoint" />
          </mxGeometry>
        </mxCell>
        <mxCell id="U2SUKcloo29ZWZg7QdRj-41" value="Logout" style="html=1;dashed=0;whiteSpace=wrap;shape=mxgraph.dfd.start" parent="1" vertex="1">
          <mxGeometry x="428.5" y="596" width="94" height="30" as="geometry" />
        </mxCell>
        <mxCell id="U2SUKcloo29ZWZg7QdRj-42" value="" style="endArrow=classic;html=1;rounded=0;exitX=0.5;exitY=1;exitDx=0;exitDy=0;exitPerimeter=0;entryX=0;entryY=0.265;entryDx=0;entryDy=0;entryPerimeter=0;" parent="1" edge="1" target="BNk_G-oLuwLmCuZNX5F_-13">
          <mxGeometry width="50" height="50" relative="1" as="geometry">
            <mxPoint x="600" y="415" as="sourcePoint" />
            <mxPoint x="600" y="440" as="targetPoint" />
          </mxGeometry>
        </mxCell>
        <mxCell id="U2SUKcloo29ZWZg7QdRj-43" value="â¦¿" style="text;whiteSpace=wrap;fontSize=38;" parent="1" vertex="1">
          <mxGeometry x="454" y="644" width="50" height="40" as="geometry" />
        </mxCell>
        <mxCell id="U2SUKcloo29ZWZg7QdRj-44" value="&lt;div&gt;&lt;span style=&quot;font-size: 14px;&quot;&gt;Stop&lt;/span&gt;&lt;/div&gt;" style="text;html=1;align=center;verticalAlign=middle;resizable=0;points=[];autosize=1;strokeColor=none;fillColor=none;" parent="1" vertex="1">
          <mxGeometry x="450.5" y="690" width="50" height="30" as="geometry" />
        </mxCell>
        <mxCell id="BNk_G-oLuwLmCuZNX5F_-2" value="" style="html=1;points=[];perimeter=orthogonalPerimeter;fillColor=strokeColor;direction=south;" parent="1" vertex="1">
          <mxGeometry x="180" y="290" width="560" height="5" as="geometry" />
        </mxCell>
        <mxCell id="BNk_G-oLuwLmCuZNX5F_-3" value="Confirm Order" style="html=1;dashed=0;whiteSpace=wrap;shape=mxgraph.dfd.start" parent="1" vertex="1">
          <mxGeometry x="544" y="385" width="113" height="30" as="geometry" />
        </mxCell>
        <mxCell id="BNk_G-oLuwLmCuZNX5F_-5" value="Cancel Order" style="html=1;dashed=0;whiteSpace=wrap;shape=mxgraph.dfd.start" parent="1" vertex="1">
          <mxGeometry x="664" y="385" width="113" height="30" as="geometry" />
        </mxCell>
        <mxCell id="BNk_G-oLuwLmCuZNX5F_-7" value="" style="endArrow=classic;html=1;rounded=0;exitX=0.5;exitY=1;exitDx=0;exitDy=0;exitPerimeter=0;" parent="1" edge="1">
          <mxGeometry width="50" height="50" relative="1" as="geometry">
            <mxPoint x="287" y="355" as="sourcePoint" />
            <mxPoint x="287" y="530" as="targetPoint" />
          </mxGeometry>
        </mxCell>
        <mxCell id="BNk_G-oLuwLmCuZNX5F_-9" value="" style="endArrow=classic;html=1;rounded=0;exitX=0.5;exitY=1;exitDx=0;exitDy=0;exitPerimeter=0;" parent="1" edge="1">
          <mxGeometry width="50" height="50" relative="1" as="geometry">
            <mxPoint x="404" y="355" as="sourcePoint" />
            <mxPoint x="404" y="530" as="targetPoint" />
          </mxGeometry>
        </mxCell>
        <mxCell id="BNk_G-oLuwLmCuZNX5F_-10" value="" style="endArrow=classic;html=1;rounded=0;exitX=0.5;exitY=1;exitDx=0;exitDy=0;exitPerimeter=0;" parent="1" edge="1">
          <mxGeometry width="50" height="50" relative="1" as="geometry">
            <mxPoint x="526" y="355" as="sourcePoint" />
            <mxPoint x="526" y="530" as="targetPoint" />
          </mxGeometry>
        </mxCell>
        <mxCell id="BNk_G-oLuwLmCuZNX5F_-12" value="" style="endArrow=classic;html=1;rounded=0;exitX=0.5;exitY=1;exitDx=0;exitDy=0;exitPerimeter=0;" parent="1" edge="1">
          <mxGeometry width="50" height="50" relative="1" as="geometry">
            <mxPoint x="720" y="415" as="sourcePoint" />
            <mxPoint x="720" y="530" as="targetPoint" />
          </mxGeometry>
        </mxCell>
        <mxCell id="BNk_G-oLuwLmCuZNX5F_-13" value="" style="html=1;points=[];perimeter=orthogonalPerimeter;fillColor=strokeColor;direction=south;" parent="1" vertex="1">
          <mxGeometry x="185" y="530" width="565" height="5" as="geometry" />
        </mxCell>
        <mxCell id="BNk_G-oLuwLmCuZNX5F_-14" value="" style="endArrow=classic;html=1;rounded=0;exitX=0.5;exitY=1;exitDx=0;exitDy=0;exitPerimeter=0;" parent="1" edge="1">
          <mxGeometry width="50" height="50" relative="1" as="geometry">
            <mxPoint x="475" y="535" as="sourcePoint" />
            <mxPoint x="475" y="595" as="targetPoint" />
          </mxGeometry>
        </mxCell>
        <mxCell id="BNk_G-oLuwLmCuZNX5F_-15" value="" style="endArrow=classic;html=1;rounded=0;exitX=0.5;exitY=1;exitDx=0;exitDy=0;exitPerimeter=0;" parent="1" edge="1">
          <mxGeometry width="50" height="50" relative="1" as="geometry">
            <mxPoint x="476" y="626" as="sourcePoint" />
            <mxPoint x="475" y="660" as="targetPoint" />
          </mxGeometry>
        </mxCell>
        <mxCell id="BNk_G-oLuwLmCuZNX5F_-16" value="Fork" style="text;html=1;align=center;verticalAlign=middle;resizable=0;points=[];autosize=1;strokeColor=none;fillColor=none;" parent="1" vertex="1">
          <mxGeometry x="700" y="242" width="50" height="30" as="geometry" />
        </mxCell>
        <mxCell id="BNk_G-oLuwLmCuZNX5F_-17" value="Join" style="text;html=1;align=center;verticalAlign=middle;resizable=0;points=[];autosize=1;strokeColor=none;fillColor=none;" parent="1" vertex="1">
          <mxGeometry x="695.5" y="555" width="50" height="30" as="geometry" />
        </mxCell>
        <mxCell id="1JFzWUNkDnY0fu00KvaF-1" value="" style="endArrow=classic;html=1;rounded=0;exitX=0.5;exitY=1;exitDx=0;exitDy=0;exitPerimeter=0;" parent="1" edge="1">
          <mxGeometry width="50" height="50" relative="1" as="geometry">
            <mxPoint x="724.5" y="265" as="sourcePoint" />
            <mxPoint x="724.5" y="290" as="targetPoint" />
          </mxGeometry>
        </mxCell>
        <mxCell id="1JFzWUNkDnY0fu00KvaF-2" value="" style="endArrow=classic;html=1;rounded=0;exitX=0.5;exitY=1;exitDx=0;exitDy=0;exitPerimeter=0;" parent="1" edge="1">
          <mxGeometry width="50" height="50" relative="1" as="geometry">
            <mxPoint x="720" y="560" as="sourcePoint" />
            <mxPoint x="720" y="535" as="targetPoint" />
          </mxGeometry>
        </mxCell>
      </root>
    </mxGraphModel>
  </diagram>
</mxfile>
